<svg width="16" height="13" viewBox="0 0 16 13" fill="none" xmlns="http://www.w3.org/2000/svg">
<path d="M13.3589 9.74112C15.0613 8.22452 16 6.50355 16 6.50355C16 6.50355 13 1.00355 8 1.00355C6.98462 1.00355 6.05172 1.23037 5.20967 1.59189L5.98054 2.36276C6.60983 2.13673 7.28441 2.00355 8 2.00355C10.1194 2.00355 11.879 3.17174 13.1679 4.46066C13.8037 5.09646 14.2978 5.73549 14.6327 6.21597C14.7055 6.32033 14.7704 6.41677 14.8273 6.50355C14.7704 6.59034 14.7055 6.68678 14.6327 6.79114C14.2978 7.27162 13.8037 7.91065 13.1679 8.54645C13.0031 8.71127 12.8306 8.87411 12.6506 9.0328L13.3589 9.74112Z" fill="#87888C"/>
<path d="M11.2975 7.6797C11.4286 7.31211 11.5 6.91617 11.5 6.50355C11.5 4.57056 9.933 3.00355 8 3.00355C7.58738 3.00355 7.19144 3.07496 6.82386 3.20608L7.64618 4.0284C7.76176 4.01202 7.87989 4.00355 8 4.00355C9.38071 4.00355 10.5 5.12284 10.5 6.50355C10.5 6.62366 10.4915 6.74179 10.4752 6.85738L11.2975 7.6797Z" fill="#87888C"/>
<path d="M8.35385 8.97871L9.17617 9.80103C8.80858 9.93215 8.41263 10.0036 8 10.0036C6.067 10.0036 4.5 8.43655 4.5 6.50355C4.5 6.09093 4.5714 5.69498 4.70253 5.32739L5.52485 6.14971C5.50847 6.2653 5.5 6.38344 5.5 6.50355C5.5 7.88427 6.61929 9.00356 8 9.00356C8.12012 9.00356 8.23825 8.99508 8.35385 8.97871Z" fill="#87888C"/>
<path d="M3.34944 3.9743C3.16945 4.13299 2.99693 4.29584 2.83211 4.46066C2.19631 5.09646 1.70216 5.73549 1.36727 6.21597C1.29454 6.32033 1.22963 6.41677 1.1727 6.50355C1.22963 6.59034 1.29454 6.68678 1.36727 6.79114C1.70216 7.27162 2.19631 7.91065 2.83211 8.54645C4.12103 9.83537 5.88062 11.0036 8 11.0036C8.7156 11.0036 9.39018 10.8704 10.0195 10.6443L10.7904 11.4152C9.9483 11.7767 9.01539 12.0036 8 12.0036C3 12.0036 0 6.50355 0 6.50355C0 6.50355 0.938717 4.78257 2.64112 3.26598L3.34944 3.9743Z" fill="#87888C"/>
<path d="M13.6464 12.8571L1.64645 0.857108L2.35355 0.150002L14.3536 12.15L13.6464 12.8571Z" fill="#87888C"/>
</svg>
