<svg width="15" height="21" viewBox="0 0 15 21" fill="none" xmlns="http://www.w3.org/2000/svg">
<path fill-rule="evenodd" clip-rule="evenodd" d="M7.5 0.5C10.2614 0.5 12.5 2.73858 12.5 5.5V8.06226C13.9264 8.35178 15 9.61313 15 11.125V17.375C15 19.1009 13.6009 20.5 11.875 20.5H3.125C1.39911 20.5 0 19.1009 0 17.375V11.125C8.81831e-09 9.61313 1.07358 8.35178 2.5 8.06226V5.5C2.5 2.73858 4.73858 0.5 7.5 0.5ZM7.5 1.75C5.42893 1.75 3.75 3.42893 3.75 5.5V8H11.25V5.5C11.25 3.42893 9.57107 1.75 7.5 1.75Z" fill="white"/>
</svg>
