<svg width="16" height="11" viewBox="0 0 16 11" fill="none" xmlns="http://www.w3.org/2000/svg">
<path d="M16 5.5C16 5.5 13 0 8 0C3 0 0 5.5 0 5.5C0 5.5 3 11 8 11C13 11 16 5.5 16 5.5ZM1.1727 5.5C1.22963 5.41321 1.29454 5.31677 1.36727 5.21242C1.70216 4.73193 2.19631 4.0929 2.83211 3.45711C4.12103 2.16818 5.88062 1 8 1C10.1194 1 11.879 2.16818 13.1679 3.45711C13.8037 4.0929 14.2978 4.73193 14.6327 5.21242C14.7055 5.31677 14.7704 5.41321 14.8273 5.5C14.7704 5.58679 14.7055 5.68323 14.6327 5.78758C14.2978 6.26807 13.8037 6.9071 13.1679 7.54289C11.879 8.83182 10.1194 10 8 10C5.88062 10 4.12103 8.83182 2.83211 7.54289C2.19631 6.9071 1.70216 6.26807 1.36727 5.78758C1.29454 5.68323 1.22963 5.58679 1.1727 5.5Z" fill="#87888C"/>
<path d="M8 3C6.61929 3 5.5 4.11929 5.5 5.5C5.5 6.88071 6.61929 8 8 8C9.38071 8 10.5 6.88071 10.5 5.5C10.5 4.11929 9.38071 3 8 3ZM4.5 5.5C4.5 3.567 6.067 2 8 2C9.933 2 11.5 3.567 11.5 5.5C11.5 7.433 9.933 9 8 9C6.067 9 4.5 7.433 4.5 5.5Z" fill="#87888C"/>
</svg>
